<!DOCTYPE svg PUBLIC "-//W3C//DTD SVG 1.1//EN" "http://www.w3.org/Graphics/SVG/1.1/DTD/svg11.dtd">
<!-- Uploaded to: SVG Repo, www.svgrepo.com, Transformed by: SVG Repo Mixer Tools -->
<svg width="183px" height="183px" viewBox="-7.36 -7.36 46.72 46.72" id="OBJECT" xmlns="http://www.w3.org/2000/svg" fill="#000000" stroke="#000000" stroke-width="0.00032">
<g id="SVGRepo_bgCarrier" stroke-width="0" transform="translate(0.4800000000000004,0.4800000000000004), scale(0.97)">
<path transform="translate(-7.36, -7.36), scale(2.92)" fill="#ffffff" d="M9.166.33a2.25 2.25 0 00-2.332 0l-5.25 3.182A2.25 2.25 0 00.5 5.436v5.128a2.25 2.25 0 001.084 1.924l5.25 3.182a2.25 2.25 0 002.332 0l5.25-3.182a2.25 2.25 0 001.084-1.924V5.436a2.25 2.25 0 00-1.084-1.924L9.166.33z" strokewidth="0"/>
</g>
<g id="SVGRepo_tracerCarrier" stroke-linecap="round" stroke-linejoin="round"/>
<g id="SVGRepo_iconCarrier">
<defs>
<style>.cls-1{fill:#e01b24;}</style>
</defs>
<title/>
<rect class="cls-1" height="30" rx="3" ry="3" width="30" x="1" y="1"/>
<path d="M31,7V4a3,3,0,0,0-3-3H4A3,3,0,0,0,1,4V7Z"/>
<path class="cls-1" d="M26,5h-.5a1,1,0,0,1,0-2H26a1,1,0,0,1,0,2Z"/>
<path class="cls-1" d="M22,5h-.5a1,1,0,0,1,0-2H22a1,1,0,0,1,0,2Z"/>
<path d="M10,24a1,1,0,0,1-.71-.29l-4-4a1,1,0,0,1,0-1.42l4-4a1,1,0,0,1,1.42,1.42L7.41,19l3.3,3.29a1,1,0,0,1,0,1.42A1,1,0,0,1,10,24Z"/>
<path d="M22,24a1,1,0,0,1-.71-.29,1,1,0,0,1,0-1.42L24.59,19l-3.3-3.29a1,1,0,0,1,1.42-1.42l4,4a1,1,0,0,1,0,1.42l-4,4A1,1,0,0,1,22,24Z"/>
<path d="M14,26a1.25,1.25,0,0,1-.32-.05,1,1,0,0,1-.63-1.27l4-12a1,1,0,1,1,1.9.64l-4,12A1,1,0,0,1,14,26Z"/>
</g>
</svg>